REM DIRINDEX 1\2\5,1\2\6,1\2\7,1\2\8,1\3\9,1\3\10,1\3\11,1\4\12,1\4\13,1\4\14,1\4\15,1\4\16
REM DIRNAME cjc034,folder01,folder02,folder03,folder04,folder05,folder06,folder07,folder08,folder09,folder10,folder11,folder12,folder13,folder14,folder15
TITLE ""
FILE "1200_sec03_0889_0897.mp3" MP3
  TRACK 01 AUDIO
    TITLE "0:"
    INDEX 01 00:00:00
  TRACK 02 AUDIO
    TITLE "12:cjc034_07230"
    INDEX 01 00:00:19
  TRACK 03 AUDIO
    TITLE "0:"
    INDEX 01 00:01:26
  TRACK 04 AUDIO
    TITLE "13:cjc034_07231"
    INDEX 01 00:01:60
  TRACK 05 AUDIO
    TITLE "0:"
    INDEX 01 00:04:01
  TRACK 06 AUDIO
    TITLE "14:cjc034_07232"
    INDEX 01 00:04:33
  TRACK 07 AUDIO
    TITLE "0:"
    INDEX 01 00:05:42
  TRACK 08 AUDIO
    TITLE "15:cjc034_07233"
    INDEX 01 00:06:02
  TRACK 09 AUDIO
    TITLE "0:"
    INDEX 01 00:09:38
  TRACK 10 AUDIO
    TITLE "12:cjc034_07234"
    INDEX 01 00:11:07
  TRACK 11 AUDIO
    TITLE "0:"
    INDEX 01 00:12:09
  TRACK 12 AUDIO
    TITLE "13:cjc034_07235"
    INDEX 01 00:12:46
  TRACK 13 AUDIO
    TITLE "0:"
    INDEX 01 00:15:21
  TRACK 14 AUDIO
    TITLE "14:cjc034_07236"
    INDEX 01 00:15:62
  TRACK 15 AUDIO
    TITLE "0:"
    INDEX 01 00:16:65
  TRACK 16 AUDIO
    TITLE "15:cjc034_07237"
    INDEX 01 00:17:25
  TRACK 17 AUDIO
    TITLE "0:"
    INDEX 01 00:20:69
  TRACK 18 AUDIO
    TITLE "12:cjc034_07238"
    INDEX 01 00:22:34
  TRACK 19 AUDIO
    TITLE "0:"
    INDEX 01 00:23:38
  TRACK 20 AUDIO
    TITLE "13:cjc034_07239"
    INDEX 01 00:23:71
  TRACK 21 AUDIO
    TITLE "0:"
    INDEX 01 00:27:04
  TRACK 22 AUDIO
    TITLE "14:cjc034_07240"
    INDEX 01 00:27:43
  TRACK 23 AUDIO
    TITLE "0:"
    INDEX 01 00:28:47
  TRACK 24 AUDIO
    TITLE "15:cjc034_07241"
    INDEX 01 00:29:13
  TRACK 25 AUDIO
    TITLE "0:"
    INDEX 01 00:32:66
  TRACK 26 AUDIO
    TITLE "12:cjc034_07242"
    INDEX 01 00:34:24
  TRACK 27 AUDIO
    TITLE "0:"
    INDEX 01 00:35:27
  TRACK 28 AUDIO
    TITLE "13:cjc034_07243"
    INDEX 01 00:35:61
  TRACK 29 AUDIO
    TITLE "0:"
    INDEX 01 00:38:14
  TRACK 30 AUDIO
    TITLE "14:cjc034_07244"
    INDEX 01 00:38:43
  TRACK 31 AUDIO
    TITLE "0:"
    INDEX 01 00:39:45
  TRACK 32 AUDIO
    TITLE "15:cjc034_07245"
    INDEX 01 00:40:07
  TRACK 33 AUDIO
    TITLE "0:"
    INDEX 01 00:42:19
  TRACK 34 AUDIO
    TITLE "12:cjc034_07246"
    INDEX 01 00:43:56
  TRACK 35 AUDIO
    TITLE "0:"
    INDEX 01 00:45:08
  TRACK 36 AUDIO
    TITLE "13:cjc034_07247"
    INDEX 01 00:45:39
  TRACK 37 AUDIO
    TITLE "0:"
    INDEX 01 00:47:11
  TRACK 38 AUDIO
    TITLE "14:cjc034_07248"
    INDEX 01 00:47:48
  TRACK 39 AUDIO
    TITLE "0:"
    INDEX 01 00:48:73
  TRACK 40 AUDIO
    TITLE "15:cjc034_07249"
    INDEX 01 00:49:35
  TRACK 41 AUDIO
    TITLE "0:"
    INDEX 01 00:52:73
  TRACK 42 AUDIO
    TITLE "12:cjc034_07250"
    INDEX 01 00:54:32
  TRACK 43 AUDIO
    TITLE "0:"
    INDEX 01 00:55:46
  TRACK 44 AUDIO
    TITLE "13:cjc034_07251"
    INDEX 01 00:56:06
  TRACK 45 AUDIO
    TITLE "0:"
    INDEX 01 00:57:37
  TRACK 46 AUDIO
    TITLE "14:cjc034_07252"
    INDEX 01 00:57:70
  TRACK 47 AUDIO
    TITLE "0:"
    INDEX 01 00:59:12
  TRACK 48 AUDIO
    TITLE "15:cjc034_07253"
    INDEX 01 00:59:43
  TRACK 49 AUDIO
    TITLE "0:"
    INDEX 01 01:03:33
  TRACK 50 AUDIO
    TITLE "12:cjc034_07254"
    INDEX 01 01:04:68
  TRACK 51 AUDIO
    TITLE "0:"
    INDEX 01 01:05:73
  TRACK 52 AUDIO
    TITLE "13:cjc034_07255"
    INDEX 01 01:06:32
  TRACK 53 AUDIO
    TITLE "0:"
    INDEX 01 01:07:35
  TRACK 54 AUDIO
    TITLE "14:cjc034_07256"
    INDEX 01 01:07:66
  TRACK 55 AUDIO
    TITLE "0:"
    INDEX 01 01:08:70
  TRACK 56 AUDIO
    TITLE "15:cjc034_07257"
    INDEX 01 01:09:30
  TRACK 57 AUDIO
    TITLE "0:"
    INDEX 01 01:13:30
  TRACK 58 AUDIO
    TITLE "12:cjc034_07258"
    INDEX 01 01:14:65
  TRACK 59 AUDIO
    TITLE "0:"
    INDEX 01 01:16:01
  TRACK 60 AUDIO
    TITLE "13:cjc034_07259"
    INDEX 01 01:16:32
  TRACK 61 AUDIO
    TITLE "0:"
    INDEX 01 01:17:22
  TRACK 62 AUDIO
    TITLE "14:cjc034_07260"
    INDEX 01 01:17:57
  TRACK 63 AUDIO
    TITLE "0:"
    INDEX 01 01:18:68
  TRACK 64 AUDIO
    TITLE "15:cjc034_07261"
    INDEX 01 01:19:27
  TRACK 65 AUDIO
    TITLE "0:"
    INDEX 01 01:24:26
  TRACK 66 AUDIO
    TITLE "12:cjc034_07262"
    INDEX 01 01:25:58
  TRACK 67 AUDIO
    TITLE "0:"
    INDEX 01 01:26:68
  TRACK 68 AUDIO
    TITLE "13:cjc034_07263"
    INDEX 01 01:27:26
  TRACK 69 AUDIO
    TITLE "0:"
    INDEX 01 01:30:50
  TRACK 70 AUDIO
    TITLE "14:cjc034_07264"
    INDEX 01 01:31:06
  TRACK 71 AUDIO
    TITLE "0:"
    INDEX 01 01:32:15
  TRACK 72 AUDIO
    TITLE "15:cjc034_07265"
    INDEX 01 01:32:49
  TRACK 73 AUDIO
    TITLE "0:"
    INDEX 01 01:37:05
